<?xml version="1.0" encoding="UTF-8" standalone="no"?>
<svg
        xmlns:dc="http://purl.org/dc/elements/1.1/"
        xmlns:cc="http://creativecommons.org/ns#"
        xmlns:rdf="http://www.w3.org/1999/02/22-rdf-syntax-ns#"
        xmlns="http://www.w3.org/2000/svg"
        xmlns:sodipodi="http://sodipodi.sourceforge.net/DTD/sodipodi-0.dtd"
        xmlns:inkscape="http://www.inkscape.org/namespaces/inkscape"
        height="100"
        viewBox="0 0 50 50"
        width="100"
        id="svg2"
        version="1.1"
        inkscape:version="0.91 r13725"
        sodipodi:docname="ic_phone_android_black_48px_rs.svg"
        style="fill:#000000"
        inkscape:export-filename="C:\Users\Gideon\Documents\Cambridge\App for Arts UROP 2017\Icons\Resized\ic_phone_android_black_48px_rs.png"
        inkscape:export-xdpi="45"
        inkscape:export-ydpi="45">
  <metadata
     id="metadata12">
    <rdf:RDF>
      <cc:Work
         rdf:about="">
        <dc:format>image/svg+xml</dc:format>
        <dc:type
           rdf:resource="http://purl.org/dc/dcmitype/StillImage" />
        <dc:title />
      </cc:Work>
    </rdf:RDF>
  </metadata>
  <defs
     id="defs10" />
  <sodipodi:namedview
     pagecolor="#ffffff"
     bordercolor="#666666"
     borderopacity="1"
     objecttolerance="10"
     gridtolerance="10"
     guidetolerance="10"
     inkscape:pageopacity="0"
     inkscape:pageshadow="2"
     inkscape:window-width="1920"
     inkscape:window-height="1017"
     id="namedview8"
     showgrid="false"
     inkscape:snap-page="true"
     fit-margin-top="0"
     fit-margin-left="0"
     fit-margin-right="0"
     fit-margin-bottom="0"
     inkscape:zoom="4.9166667"
     inkscape:cx="-5.9999998"
     inkscape:cy="24"
     inkscape:window-x="-8"
     inkscape:window-y="-8"
     inkscape:window-maximized="1"
     inkscape:current-layer="svg2" />
  <path
     d="m 33.333333,2.083333 -16.666666,0 c -3.458334,0 -6.25,2.791667 -6.25,6.25 l 0,33.333334 c 0,3.458333 2.791666,6.25 6.25,6.25 l 16.666666,0 c 3.458334,0 6.25,-2.791667 6.25,-6.25 l 0,-33.333334 c 0,-3.458333 -2.791666,-6.25 -6.25,-6.25 z M 29.166667,43.75 l -8.333334,0 0,-2.083333 8.333334,0 0,2.083333 z m 6.770833,-6.25 -21.875,0 0,-29.166667 21.875,0 0,29.166667 z"
     id="path4"
     inkscape:connector-curvature="0"
     style="fill:#686868;fill-opacity:1" />
  <path
     d="M 0,0 50,0 50,50 0,50 Z"
     id="path6"
     inkscape:connector-curvature="0"
     style="fill:none" />
</svg>
