<?xml version="1.0" encoding="UTF-8" standalone="no"?>
<svg
        xmlns:dc="http://purl.org/dc/elements/1.1/"
        xmlns:cc="http://creativecommons.org/ns#"
        xmlns:rdf="http://www.w3.org/1999/02/22-rdf-syntax-ns#"
        xmlns="http://www.w3.org/2000/svg"
        xmlns:sodipodi="http://sodipodi.sourceforge.net/DTD/sodipodi-0.dtd"
        xmlns:inkscape="http://www.inkscape.org/namespaces/inkscape"
        version="1.1"
        width="100"
        height="100"
        viewBox="0 0 100 100"
        id="svg2"
        inkscape:version="0.91 r13725"
        sodipodi:docname="server_rs.svg"
        inkscape:export-filename="C:\Users\Gideon\Documents\Cambridge\App for Arts UROP 2017\Icons\Resized\server_rs.png"
        inkscape:export-xdpi="45"
        inkscape:export-ydpi="45">
  <metadata
     id="metadata10">
    <rdf:RDF>
      <cc:Work
         rdf:about="">
        <dc:format>image/svg+xml</dc:format>
        <dc:type
           rdf:resource="http://purl.org/dc/dcmitype/StillImage" />
        <dc:title></dc:title>
      </cc:Work>
    </rdf:RDF>
  </metadata>
  <defs
     id="defs8" />
  <sodipodi:namedview
     pagecolor="#ffffff"
     bordercolor="#666666"
     borderopacity="1"
     objecttolerance="10"
     gridtolerance="10"
     guidetolerance="10"
     inkscape:pageopacity="0"
     inkscape:pageshadow="2"
     inkscape:window-width="1920"
     inkscape:window-height="1017"
     id="namedview6"
     showgrid="false"
     inkscape:snap-page="true"
     fit-margin-top="0"
     fit-margin-left="0"
     fit-margin-right="0"
     fit-margin-bottom="0"
     inkscape:zoom="1.7383042"
     inkscape:cx="182.45793"
     inkscape:cy="-103.2115"
     inkscape:window-x="-8"
     inkscape:window-y="-8"
     inkscape:window-maximized="1"
     inkscape:current-layer="svg2" />
  <path
     d="m 16.666667,4.166667 66.666666,0 A 4.1666667,4.1666667 0 0 1 87.5,8.333333 L 87.5,25 a 4.1666667,4.1666667 0 0 1 -4.166667,4.166667 l -66.666666,0 A 4.1666667,4.1666667 0 0 1 12.5,25 l 0,-16.666667 a 4.1666667,4.1666667 0 0 1 4.166667,-4.166666 m 0,33.333333 66.666666,0 A 4.1666667,4.1666667 0 0 1 87.5,41.666667 l 0,16.666666 A 4.1666667,4.1666667 0 0 1 83.333333,62.5 l -66.666666,0 A 4.1666667,4.1666667 0 0 1 12.5,58.333333 l 0,-16.666666 A 4.1666667,4.1666667 0 0 1 16.666667,37.5 m 0,33.333333 66.666666,0 A 4.1666667,4.1666667 0 0 1 87.5,75 l 0,16.666667 a 4.1666667,4.1666667 0 0 1 -4.166667,4.166666 l -66.666666,0 A 4.1666667,4.1666667 0 0 1 12.5,91.666667 L 12.5,75 a 4.1666667,4.1666667 0 0 1 4.166667,-4.166667 m 20.833333,-50 4.166667,0 0,-8.333333 -4.166667,0 0,8.333333 m 0,33.333334 4.166667,0 0,-8.333334 -4.166667,0 0,8.333334 m 0,33.333333 4.166667,0 0,-8.333333 -4.166667,0 0,8.333333 m -16.666667,-75 0,8.333333 8.333334,0 0,-8.333333 -8.333334,0 m 0,33.333333 0,8.333334 8.333334,0 0,-8.333334 -8.333334,0 m 0,33.333334 0,8.333333 8.333334,0 0,-8.333333 -8.333334,0 z"
     id="path4"
     inkscape:connector-curvature="0"
     style="fill:#686868;fill-opacity:1" />
</svg>
